# xmcd
# 
# Track frame offsets:
#     150
#     19168
#     36293
#     58690
#     77983
#     95045
#     114900
#     136220
#     151683
#     171703
# 
# Disc length: 2536
# 
# Revision: 2
# Processed by: cddbd v1.5.2PL0 Copyright (c) Steve Scherf et al.
# Submitted via: BonkEnc v1.0.6
# 
DISCID=8109e60a
DTITLE=KOKIA - 歌がチカラ
DYEAR=2004
DGENRE=JPop
TTITLE0=夢がチカラ
TTITLE1=a girl
TTITLE2=so much love for you
TTITLE3=空に太陽　あなたに私
TTITLE4=ピンチはチャンス
TTITLE5=キラリ
TTITLE6=give ＆ take
TTITLE7=New season 〜夢に向かって吹く風〜
TTITLE8=歌う人
TTITLE9=夢がチカラ (acoustic ver)
EXTD=YEAR: 2004
EXTT0=
EXTT1=
EXTT2=
EXTT3=
EXTT4=
EXTT5=
EXTT6=
EXTT7=
EXTT8=
EXTT9=
PLAYORDER=
